<svg xmlns="http://www.w3.org/2000/svg" width="822.673" height="542.453" viewBox="0 0 822.673 542.453">
  <g id="Group_1" data-name="Group 1" transform="translate(0 -95.241)">
    <line id="Line_1" data-name="Line 1" x2="139.351" transform="translate(0 637.194)" fill="none" stroke="#3f3d56" stroke-miterlimit="10" stroke-width="1"/>
    <rect id="Rectangle_16" data-name="Rectangle 16" width="618.684" height="418.892" rx="19.398" transform="translate(203.989 122.184)" fill="#f2f2f2"/>
    <rect id="Rectangle_17" data-name="Rectangle 17" width="618.684" height="418.892" rx="19.398" transform="translate(185.101 95.741)" fill="none" stroke="#3f3d56" stroke-miterlimit="10" stroke-width="1"/>
    <line id="Line_2" data-name="Line 2" x2="618.684" transform="translate(185.101 135.901)" fill="none" stroke="#3f3d56" stroke-miterlimit="10" stroke-width="1"/>
    <rect id="Rectangle_18" data-name="Rectangle 18" width="168.732" height="26.023" rx="7.093" transform="translate(554.884 230.055)" fill="#6c63ff" opacity="0.3"/>
    <rect id="Rectangle_19" data-name="Rectangle 19" width="233.37" height="20.987" rx="7.093" transform="translate(522.565 302.249)" fill="#6c63ff" opacity="0.3"/>
    <rect id="Rectangle_20" data-name="Rectangle 20" width="233.37" height="20.987" rx="7.093" transform="translate(522.565 359.332)" fill="#6c63ff" opacity="0.3"/>
    <rect id="Rectangle_21" data-name="Rectangle 21" width="233.37" height="20.987" rx="7.093" transform="translate(522.565 416.416)" fill="#6c63ff" opacity="0.3"/>
    <rect id="Rectangle_22" data-name="Rectangle 22" width="168.732" height="26.023" rx="7.093" transform="translate(563.279 221.661)" fill="none" stroke="#3f3d56" stroke-miterlimit="10" stroke-width="1"/>
    <rect id="Rectangle_23" data-name="Rectangle 23" width="233.37" height="20.987" rx="7.093" transform="translate(530.96 293.854)" fill="none" stroke="#3f3d56" stroke-miterlimit="10" stroke-width="1"/>
    <rect id="Rectangle_24" data-name="Rectangle 24" width="233.37" height="20.987" rx="7.093" transform="translate(530.96 350.938)" fill="none" stroke="#3f3d56" stroke-miterlimit="10" stroke-width="1"/>
    <rect id="Rectangle_25" data-name="Rectangle 25" width="233.37" height="20.987" rx="7.093" transform="translate(530.96 408.021)" fill="none" stroke="#3f3d56" stroke-miterlimit="10" stroke-width="1"/>
    <circle id="Ellipse_2" data-name="Ellipse 2" cx="12.592" cy="12.592" r="12.592" transform="translate(219.519 108.333)" fill="#6c63ff" opacity="0.3"/>
    <circle id="Ellipse_3" data-name="Ellipse 3" cx="12.592" cy="12.592" r="12.592" transform="translate(254.777 108.333)" fill="#6c63ff" opacity="0.3"/>
    <circle id="Ellipse_4" data-name="Ellipse 4" cx="12.592" cy="12.592" r="12.592" transform="translate(290.034 108.333)" fill="#6c63ff" opacity="0.3"/>
    <circle id="Ellipse_5" data-name="Ellipse 5" cx="12.592" cy="12.592" r="12.592" transform="translate(224.556 103.296)" fill="none" stroke="#3f3d56" stroke-miterlimit="10" stroke-width="1"/>
    <circle id="Ellipse_6" data-name="Ellipse 6" cx="12.592" cy="12.592" r="12.592" transform="translate(259.813 103.296)" fill="none" stroke="#3f3d56" stroke-miterlimit="10" stroke-width="1"/>
    <circle id="Ellipse_7" data-name="Ellipse 7" cx="12.592" cy="12.592" r="12.592" transform="translate(295.071 103.296)" fill="none" stroke="#3f3d56" stroke-miterlimit="10" stroke-width="1"/>
    <path id="Path_629" data-name="Path 629" d="M531.7,637.429c-2.108-9.711-2.667-22.975-1.958-32.2,0,0-10.66-46.831-19.047-51.2l0,0c-.128.165-4.2,5.5-4.715,22.014-.524,16.775-6.464,27.783-6.464,27.783s1.922,20.909.823,33.6Z" transform="translate(-151.125 -140.425)" fill="#030917"/>
    <path id="Path_630" data-name="Path 630" d="M589.415,298.379H395.955A19.955,19.955,0,0,0,376,318.335v258.1a19.955,19.955,0,0,0,19.956,19.955H463.83c-2.267-9.4-5.085-24.085-2.231-34.294v-.007l0,0c.133-.476.275-.946.433-1.4a53.3,53.3,0,0,0,1.924-20.444,42.484,42.484,0,0,0,0-17.823c-2.1-9.784-3.565-19.4-3.565-19.4s-1.156-12.93-.147-20.856c.022-.174.048-.339.073-.508l-.556-.128s2.971-13.455,4.019-22.017c.248-2.021.573-4.584.926-7.316a17.589,17.589,0,0,1-2.848-.722c-9.436-3.32-12.406-33.375-12.406-33.375v-9.523s-3.145-14.591,7.863-21.056c10.6-6.226,14.833-7.93,15.132-8.047.081-.058.16-.11.242-.174a9.288,9.288,0,0,0,2.762-3.554q.022-.36.01-.715c-.179-3.414-2.555-6.518-4.81-9.228l-5.77-6.932a6.776,6.776,0,0,1-1.486-2.4,5.543,5.543,0,0,1-.157-1.514q0-.283,0-.565.047-2.584.14-5.167c.054-1.5.433-3.4,1.906-3.712.766-.161,1.781.12,2.186-.55a1.314,1.314,0,0,0,.1-.89c-.005.022-.006.046-.013.068,0-.028-.01-.056-.015-.084a18.835,18.835,0,0,1-.546-3.682,4.907,4.907,0,0,1,.237-1.654c.853-2.5,3.793-3.522,6.389-3.994s5.512-.877,7.142-2.952a22.623,22.623,0,0,1,1.418-1.993,5.565,5.565,0,0,1,2.658-1.34,14.689,14.689,0,0,1,9.659.857c1.256.573,2.518,1.345,3.9,1.258,1.431-.091,2.654-1.1,4.067-1.343,2.283-.4,4.465,1.314,5.59,3.34a8.27,8.27,0,0,1,1.035,4.217,5.8,5.8,0,0,1-1.481,3.98c-.982,1.042-2.448,1.758-2.856,3.131-.166.559-.127,1.161-.274,1.725-.018.071-.048.136-.072.2.027.035.056.068.083.1a17.822,17.822,0,0,1-8.673,27.718c-.007.177-.014.354-.013.531a7.7,7.7,0,0,0,2.384,5.931l15.57,6.385s9.373-1.136,12.755,12.852a24.2,24.2,0,0,1,.579,7.1,21.18,21.18,0,0,0,2.566,10.628c3.844,7.689,2.971,25.337-4.893,27.084-7.448,1.655-10.345.96-10.631.882l-.017.309c.123,3.312,1.3,31.873,5.58,35.33,1.183.956.957,1.6-.014,2.036l0,0s.008.183.026.514c.129,2.089.789,10.044,3.654,14.57,3.321,5.242,2.972,35.473,2.972,35.473l2.27,17.823s-1.4,11.008,0,12.93c.794,1.09,1.755,17.967,2.439,32.378h58.368a19.955,19.955,0,0,0,19.955-19.955v-258.1a19.956,19.956,0,0,0-19.956-19.955Z" transform="translate(-131.297 -99.384)" fill="#030917"/>
    <rect id="Rectangle_26" data-name="Rectangle 26" width="233.37" height="298.009" rx="23.772" transform="translate(224.556 176.33)" fill="none" stroke="#3f3d56" stroke-miterlimit="10" stroke-width="1"/>
    <path id="Path_631" data-name="Path 631" d="M183.427,400.571s-7.827-2.314-9.506.2,2.289,20.775,2.289,20.775l17.247,1.048-6.019-15.2Z" transform="translate(-98.789 -115.634)" fill="#2f2e41"/>
    <path id="Path_632" data-name="Path 632" d="M110.926,579.347s15.693,34.453,3.608,33.371-16.776-33.371-16.776-33.371Z" transform="translate(-86.628 -144.49)" fill="#a0616a"/>
    <path id="Path_633" data-name="Path 633" d="M235.319,574.462s-6.885,37.228,4.579,33.252,8.2-36.44,8.2-36.44Z" transform="translate(-108.383 -143.194)" fill="#a0616a"/>
    <path id="Path_634" data-name="Path 634" d="M174.861,389.259s-.18,17.317,6.494,18.219-3.788,10.1-3.788,10.1l-11.905,2.345-17.137-1.263-7.576-9.741s13.348-6.313,7.576-25.975Z" transform="translate(-93.562 -112.96)" fill="#a0616a"/>
    <path id="Path_635" data-name="Path 635" d="M174.861,389.259s-.18,17.317,6.494,18.219-3.788,10.1-3.788,10.1l-11.905,2.345-17.137-1.263-7.576-9.741s13.348-6.313,7.576-25.975Z" transform="translate(-93.562 -112.96)" opacity="0.1"/>
    <path id="Path_636" data-name="Path 636" d="M203.066,564.944s8.478,18.219,1.8,75.4c0,0,1.984,20.2.361,23.991s-14.972,55.2-14.972,55.2-17.137,3.788-19.482-7.576c0,0,2.345-16.235,2.165-18.76s3.788-30.124,3.788-30.124l-8.117-53.394-6.133,48.163s0,13.89-1.984,16.956,0,64.758,0,64.758,5.592,9.38-2.886,9.56-16.054-.18-16.776-6.133-1.082-11.905-2.886-15.513-4.149-44.916-3.608-59.347S122.434,579.555,126.4,571.8,203.066,564.944,203.066,564.944Z" transform="translate(-91.101 -142.173)" fill="#2f2e41"/>
    <circle id="Ellipse_8" data-name="Ellipse 8" cx="21.646" cy="21.646" r="21.646" transform="translate(50.453 239.5)" fill="#a0616a"/>
    <path id="Path_637" data-name="Path 637" d="M142.463,413.145s13.168,9.741,32.289,1.984c0,0,6.314-3.067,5.772-7.757s13.168,37.7,13.168,37.7l13.89,73.777-.722,30.124s-6.133-3.067-25.254,3.788-50.327-7.757-50.327-7.757l1.082-77.385,1.082-45.1,2.886-9.921S137.773,409.9,142.463,413.145Z" transform="translate(-92.01 -116.823)" fill="#f2f2f2"/>
    <path id="Path_638" data-name="Path 638" d="M182.063,399.89s3.187-.518,6.253,4.353S198.6,412.18,198.6,412.18s17.5,1.082,20.023,10.462,8.839,22.187,11.905,45.818,9.2,61.331,10.1,64.4-1.263,12.447,1.263,15.333-17.858,2.886-17.858,2.886-1.8-14.792-3.067-14.792-.9,9.921.361,17.137-9.2,0-9.2,0-8.117-33.01-15.874-62.774-12.266-46.178-10.823-52.853,5.412-25.8,2.525-27.6S182.063,399.89,182.063,399.89Z" transform="translate(-100.163 -115.678)" fill="#2f2e41"/>
    <path id="Path_639" data-name="Path 639" d="M141.2,399.874s-4.713,2.565-16.618,11.043-20.023,14.972-20.023,14.972-4.69,3.608-7.576,25.073-9.38,77.024-6.855,84.059,3.427,11.184,2.525,15.333,18.94,3.968,19.3,3.067-.541-17.317.361-17.678,5.772,9.741,6.674,18.219,11.364,15.152,13.709,15.152,14.431-48.884,14.611-82.255-3.968-61.511-7.035-65.48S141.2,399.874,141.2,399.874Z" transform="translate(-85.312 -115.678)" fill="#2f2e41"/>
    <path id="Path_640" data-name="Path 640" d="M185.8,747.158s1.443-3.969,6.494-2.706,8.478-3.247,8.478-3.247,2.706-.361.9,3.067-3.247,5.772-3.247,5.772,10.823,24.713,3.788,30.665-15.152,2.345-15.152,2.345-7.937-5.592-7.576-20.383c0,0-.361-4.69-4.69-12.266s-7.576-19.121-2.345-21.285,6.578-2.245,6.578-2.245-2.448,11.2,3.875,15.109Z" transform="translate(-98.186 -168.174)" fill="#3f3d56"/>
    <path id="Path_641" data-name="Path 641" d="M147.894,782.494s-4.329-8.117,2.886-9.019,14.972-1.443,14.611,2.345-1.263,9.56-1.263,9.56l1.263,4.149s.361,10.282,1.623,11.544,8.117,12.086-6.494,12.086-18.94-1.623-17.678-5.051,1.623-20.384,1.623-20.384Z" transform="translate(-93.833 -175.55)" fill="#3f3d56"/>
    <path id="Path_642" data-name="Path 642" d="M156.553,348.664s10.1,2.706,15.333,3.788,4.69-1.984,4.69-1.984,6.855.9,6.494.18,2.886-4.51-.9-8.839-2.706-7.576-2.706-7.576h-3.247l-.9-1.263h-5.051s-3.788-1.443-13.709,0-23.45,1.8-24.532,7.757-6.674,13.348-4.69,16.776,13.348,17.5,14.431,23.45,6.136,7.275,5.954,3.547-5.233-16.716-.9-17.257S158.537,355.7,156.553,348.664Z" transform="translate(-91.308 -104.834)" fill="#2f2e41"/>
  </g>
</svg>
